<mxfile host="app.diagrams.net" modified="2023-07-17T22:14:30.441Z" agent="Mozilla/5.0 (Windows NT 10.0; Win64; x64) AppleWebKit/537.36 (KHTML, like Gecko) Chrome/114.0.0.0 Safari/537.36 OPR/100.0.0.0" version="21.6.2" etag="W4zMLXtZ4i9NKPyArft2" type="github">
  <diagram name="PÃ¡gina-1" id="N2UAmvE58v5LlbXJ-d7c">
    <mxGraphModel>
      <root>
        <mxCell id="0" />
        <mxCell id="1" parent="0" />
      </root>
    </mxGraphModel>
  </diagram>
</mxfile>
